HIERARCHY
ROOT Hips
{
	OFFSET 0.000000 0.000000 0.000000
	CHANNELS 6 Xposition Yposition Zposition Zrotation Yrotation Xrotation 
	JOINT LHipJoint
	{
		OFFSET 0.000000 0.000000 0.000000
		CHANNELS 3 Zrotation Yrotation Xrotation
		JOINT LeftUpLeg
		{
			OFFSET 1.363060 -1.794630 0.839290
			CHANNELS 3 Zrotation Yrotation Xrotation
			JOINT LeftLeg
			{
				OFFSET 2.448110 -6.726130 0.000000
				CHANNELS 3 Zrotation Yrotation Xrotation
				JOINT LeftFoot
				{
					OFFSET 2.562200 -7.039590 0.000000
					CHANNELS 3 Zrotation Yrotation Xrotation
					JOINT LeftToeBase
					{
						OFFSET 0.157640 -0.433110 2.322550
						CHANNELS 3 Zrotation Yrotation Xrotation
						End Site
						{
							OFFSET 0.000000 0.000000 0.000000
						}
					}
				}
			}
		}
	}
	JOINT RHipJoint
	{
		OFFSET 0.000000 0.000000 0.000000
		CHANNELS 3 Zrotation Yrotation Xrotation
		JOINT RightUpLeg
		{
			OFFSET -1.305520 -1.794630 0.839290
			CHANNELS 3 Zrotation Yrotation Xrotation
			JOINT RightLeg
			{
				OFFSET -2.542530 -6.985550 0.000000
				CHANNELS 3 Zrotation Yrotation Xrotation
				JOINT RightFoot
				{
					OFFSET -2.568260 -7.056230 0.000000
					CHANNELS 3 Zrotation Yrotation Xrotation
					JOINT RightToeBase
					{
						OFFSET -0.164730 -0.452590 2.363150
						CHANNELS 3 Zrotation Yrotation Xrotation
						End Site
						{
							OFFSET 0.000000 0.000000 0.000000
						}
					}
				}
			}
		}
	}
	JOINT LowerBack
	{
		OFFSET 0.000000 0.000000 0.000000
		CHANNELS 3 Zrotation Yrotation Xrotation
		JOINT Spine
		{
			OFFSET 0.028270 2.035590 -0.193380
			CHANNELS 3 Zrotation Yrotation Xrotation
			JOINT Spine1
			{
				OFFSET 0.056720 2.048850 -0.042750
				CHANNELS 3 Zrotation Yrotation Xrotation
				JOINT Neck
				{
					OFFSET 0.000000 0.000000 0.000000
					CHANNELS 3 Zrotation Yrotation Xrotation
					JOINT Neck1
					{
						OFFSET -0.054170 1.746240 0.172020
						CHANNELS 3 Zrotation Yrotation Xrotation
						JOINT Head
						{
							OFFSET 0.104070 1.761360 -0.123970
							CHANNELS 3 Zrotation Yrotation Xrotation
							End Site
							{
								OFFSET 0.000000 0.000000 0.000000
							}
						}
					}
				}
				JOINT LeftShoulder
				{
					OFFSET 0.000000 0.000000 0.000000
					CHANNELS 3 Zrotation Yrotation Xrotation
					JOINT LeftArm
					{
						OFFSET 3.362410 1.200890 -0.311210
						CHANNELS 3 Zrotation Yrotation Xrotation
						JOINT LeftForeArm
						{
							OFFSET 4.983000 -0.000000 -0.000000
							CHANNELS 3 Zrotation Yrotation Xrotation
							JOINT LeftHand
							{
								OFFSET 3.483560 -0.000000 -0.000000
								CHANNELS 3 Zrotation Yrotation Xrotation
								JOINT LeftFingerBase
								{
									OFFSET 0.000000 0.000000 0.000000
									CHANNELS 3 Zrotation Yrotation Xrotation
									JOINT LeftHandIndex1
									{
										OFFSET 0.715260 -0.000000 -0.000000
										CHANNELS 3 Zrotation Yrotation Xrotation
										End Site
										{
											OFFSET 0.000000 0.000000 0.000000
										}
									}
								}
								JOINT LThumb
								{
									OFFSET 0.000000 0.000000 0.000000
									CHANNELS 3 Zrotation Yrotation Xrotation
									End Site
									{
										OFFSET 0.000000 0.000000 0.000000
									}
								}
							}
						}
					}
				}
				JOINT RightShoulder
				{
					OFFSET 0.000000 0.000000 0.000000
					CHANNELS 3 Zrotation Yrotation Xrotation
					JOINT RightArm
					{
						OFFSET -3.136600 1.374050 -0.404650
						CHANNELS 3 Zrotation Yrotation Xrotation
						JOINT RightForeArm
						{
							OFFSET -5.241900 -0.000000 -0.000000
							CHANNELS 3 Zrotation Yrotation Xrotation
							JOINT RightHand
							{
								OFFSET -3.444170 -0.000000 -0.000000
								CHANNELS 3 Zrotation Yrotation Xrotation
								JOINT RightFingerBase
								{
									OFFSET 0.000000 0.000000 0.000000
									CHANNELS 3 Zrotation Yrotation Xrotation
									JOINT RightHandIndex1
									{
										OFFSET -0.622530 -0.000000 -0.000000
										CHANNELS 3 Zrotation Yrotation Xrotation
										End Site
										{
											OFFSET 0.000000 0.000000 0.000000
										}
									}
								}
								JOINT RThumb
								{
									OFFSET 0.000000 0.000000 0.000000
									CHANNELS 3 Zrotation Yrotation Xrotation
									End Site
									{
										OFFSET 0.000000 0.000000 0.000000
									}
								}
							}
						}
					}
				}
			}
		}
	}
}
MOTION
Frames: 10
Frame Time: 0.008333
-3.063932 17.546863 1.324498 -50.986293 -66.074034 71.440732 -11.503132 -5.774730 -4.043328 9.496383 -2.009346 -25.695049 0.376229 0.064378 11.664592 1.164211 6.350472 -2.813944 0.640700 -0.000000 -41.628500 5.425506 2.674133 4.592434 0.647204 -0.317352 -97.154104 4.777770 1.640104 -2.479588 0.387613 -1.131676 4.717663 -1.734900 -0.000000 -75.807200 2.177837 -2.159406 7.185764 -1.396472 -2.228971 -1.868457 -10.577445 -2.399447 -1.241239 13.726127 4.684911 3.429884 -4.855099 -0.403978 2.515924 0.000000 0.000000 0.000000 -4.827954 -14.443766 3.783814 -48.947482 -22.525167 9.651589 -3.391953 -25.446971 -0.003001 4.244697 -4.721960 -0.185530 -0.106192 0.179987 0.000000 0.000000 0.000000 0.000000 0.000000 0.000000 0.000000 24.462968 1.808043 1.250138 70.508582 7.634210 -6.502636 2.419508 15.597012 0.005395 1.560515 10.414294 0.142783 0.012029 -0.099477 0.000000 0.000000 0.000000 0.000000 0.000000 0.000000 0.000000 
-3.062182 17.548288 1.317970 -51.235268 -65.967198 72.008086 -11.444809 -5.812669 -4.040377 9.658699 -1.893085 -26.045676 0.380793 0.046301 11.581812 1.159731 6.314355 -2.745718 0.648900 0.000000 -41.762100 5.454698 2.562678 4.699731 0.632594 0.083767 -97.676417 4.863200 1.606334 -1.799748 0.409403 -0.974923 3.444622 -1.691900 -0.000000 -75.812099 2.030655 -2.115040 7.125676 -1.436159 -2.185971 -1.867285 -10.577349 -2.354603 -1.191359 13.758173 4.705837 3.506392 -4.848568 -0.403965 2.529044 0.000000 0.000000 0.000000 -4.862532 -14.454619 3.767453 -48.864850 -22.229969 9.518298 -3.421888 -24.613396 -0.002701 4.149984 -4.566009 -0.175448 -0.105221 0.174317 0.000000 0.000000 0.000000 0.000000 0.000000 0.000000 0.000000 24.473503 1.783156 1.192363 70.534974 7.830555 -6.301308 2.393485 15.785056 0.005235 1.603982 10.474837 0.147780 0.010684 -0.099637 0.000000 0.000000 0.000000 0.000000 0.000000 0.000000 0.000000 
-3.060712 17.548858 1.311450 -51.621348 -65.860669 72.679205 -11.378579 -5.843495 -4.028521 9.828748 -1.703630 -26.421391 0.381583 0.030048 11.568114 1.152602 6.251899 -2.709123 0.650800 0.000000 -41.878401 5.475944 2.476783 4.770504 0.708060 0.564217 -97.590390 4.898234 1.648297 -1.809349 0.402840 -0.992997 3.001234 -1.700800 0.000000 -75.959800 1.895131 -2.061219 7.063501 -1.470991 -2.132262 -1.863910 -10.575772 -2.298697 -1.138866 13.765934 4.732934 3.578661 -4.840666 -0.403929 2.541273 0.000000 0.000000 0.000000 -4.921201 -14.421340 3.750203 -48.764848 -21.944141 9.366761 -3.453732 -23.753228 -0.002386 4.032492 -4.386413 -0.163867 -0.104228 0.168588 0.000000 0.000000 0.000000 0.000000 0.000000 0.000000 0.000000 24.451714 1.778806 1.133257 70.565401 8.014904 -6.084599 2.370196 15.980088 0.005109 1.654854 10.533809 0.153479 0.009447 -0.099866 0.000000 0.000000 0.000000 0.000000 0.000000 0.000000 0.000000 
-3.059620 17.548567 1.304892 -52.130459 -65.752407 73.438346 -11.305636 -5.866855 -4.007456 10.004233 -1.443186 -26.819495 0.378147 0.015943 11.622487 1.142181 6.159015 -2.703566 0.645900 -0.000000 -41.978100 5.489661 2.418057 4.801854 0.895291 1.114536 -96.917551 4.888904 1.761259 -2.484267 0.372384 -1.152210 3.397665 -1.746900 0.000001 -76.180799 1.770952 -1.999902 7.002018 -1.501230 -2.069812 -1.858006 -10.573684 -2.233753 -1.084451 13.750022 4.764398 3.643868 -4.832119 -0.403884 2.551880 0.000000 0.000000 0.000000 -5.003638 -14.341826 3.732702 -48.644487 -21.667840 9.196096 -3.487131 -22.876309 -0.002074 3.898490 -4.189879 -0.151384 -0.103246 0.162897 0.000000 0.000000 0.000000 0.000000 0.000000 0.000000 0.000000 24.401813 1.792758 1.073441 70.597992 8.187633 -5.846641 2.348740 16.186466 0.005005 1.706934 10.589492 0.159277 0.008320 -0.100186 0.000000 0.000000 0.000000 0.000000 0.000000 0.000000 0.000000 
-3.058516 17.547635 1.298110 -52.743463 -65.644867 74.251810 -11.225620 -5.881053 -3.980304 10.177705 -1.129262 -27.206299 0.371205 0.003864 11.721029 1.129735 6.048314 -2.718891 0.636800 -0.000000 -42.069700 5.496909 2.390169 4.781276 1.217193 1.717031 -95.684508 4.842032 1.930590 -3.759584 0.317419 -1.402292 4.620336 -1.810800 -0.000000 -76.460500 1.651851 -1.932906 6.958692 -1.528712 -1.999853 -1.845817 -10.571970 -2.160925 -1.028740 13.712133 4.787607 3.696702 -4.824146 -0.403829 2.559167 0.000000 0.000000 0.000000 -5.106973 -14.222218 3.715225 -48.497817 -21.398606 8.998205 -3.520926 -22.001292 -0.001782 3.751818 -3.979625 -0.138501 -0.102233 0.157325 0.000000 0.000000 0.000000 0.000000 0.000000 0.000000 0.000000 24.331576 1.811295 1.014401 70.629931 8.365834 -5.571288 2.327880 16.398747 0.004913 1.748355 10.645135 0.164076 0.007335 -0.100645 0.000000 0.000000 0.000000 0.000000 0.000000 0.000000 0.000000 
-3.057697 17.546166 1.290989 -53.418535 -65.532880 75.074717 -11.142237 -5.884933 -3.944504 10.347464 -0.774505 -27.574301 0.360853 -0.006078 11.857152 1.114271 5.914439 -2.751432 0.623200 0.000000 -42.155700 5.499424 2.393065 4.701302 1.704639 2.341730 -93.949589 4.771816 2.137005 -5.539657 0.238381 -1.675067 6.615774 -1.868799 0.000000 -76.749100 1.536689 -1.864286 6.940001 -1.554094 -1.926522 -1.826918 -10.571468 -2.084556 -0.974890 13.656980 4.808158 3.739031 -4.817149 -0.403777 2.563682 0.000000 0.000000 0.000000 -5.227964 -14.071678 3.699018 -48.325582 -21.125386 8.773173 -3.554279 -21.138403 -0.001531 3.606052 -3.766169 -0.126119 -0.101209 0.151957 0.000000 0.000000 0.000000 0.000000 0.000000 0.000000 0.000000 24.247608 1.837385 0.956724 70.659320 8.536022 -5.266499 2.306007 16.630869 0.004813 1.776745 10.697250 0.167674 0.006418 -0.101232 0.000000 0.000000 0.000000 0.000000 0.000000 0.000000 0.000000 
-3.057133 17.544403 1.283471 -54.110397 -65.416438 75.855037 -11.058067 -5.877633 -3.900690 10.508884 -0.403879 -27.900416 0.348213 -0.014170 12.011250 1.096484 5.765390 -2.792898 0.606900 0.000000 -42.242300 5.500527 2.425985 4.554994 2.359421 2.953246 -91.782754 4.687662 2.357194 -7.692020 0.138382 -1.916434 9.282576 -1.903600 0.000000 -76.980300 1.420064 -1.797678 6.957831 -1.579112 -1.853233 -1.799100 -10.572876 -2.008019 -0.923928 13.588898 4.819525 3.768830 -4.812038 -0.403730 2.564726 0.000000 0.000000 0.000000 -5.363565 -13.898613 3.684679 -48.125928 -20.845661 8.520967 -3.586259 -20.299830 -0.001336 3.471208 -3.557442 -0.114836 -0.100162 0.146861 0.000000 0.000000 0.000000 0.000000 0.000000 0.000000 0.000000 24.158592 1.861343 0.901094 70.682585 8.702991 -4.927335 2.281821 16.884481 0.004690 1.784395 10.748325 0.169272 0.005558 -0.101959 0.000000 0.000000 0.000000 0.000000 0.000000 0.000000 0.000000 
-3.057122 17.542419 1.275344 -54.768563 -65.295447 76.544849 -10.976136 -5.858924 -3.847716 10.654725 -0.031543 -28.184352 0.332763 -0.020955 12.176990 1.075238 5.595082 -2.840255 0.587700 0.000000 -42.325200 5.505729 2.483837 4.345185 3.177120 3.515639 -89.276493 4.600920 2.571394 -10.081708 0.028059 -2.069683 12.494366 -1.896800 0.000000 -77.083200 1.295466 -1.737283 7.011914 -1.605663 -1.784430 -1.763664 -10.576618 -1.935936 -0.879229 13.514978 4.829294 3.790303 -4.808974 -0.403714 2.563504 0.000000 0.000000 0.000000 -5.505896 -13.715801 3.672850 -47.903895 -20.545805 8.246722 -3.615992 -19.490970 -0.001217 3.364072 -3.364818 -0.105355 -0.099102 0.142067 0.000000 0.000000 0.000000 0.000000 0.000000 0.000000 0.000000 24.072368 1.887315 0.847546 70.699139 8.847053 -4.565759 2.253669 17.176117 0.004528 1.771808 10.794300 0.168872 0.004657 -0.102787 0.000000 0.000000 0.000000 0.000000 0.000000 0.000000 0.000000 
-3.057753 17.540470 1.266555 -55.353318 -65.206278 77.155766 -10.905551 -5.843262 -3.807705 10.774823 0.311030 -28.427379 0.313815 -0.025759 12.330002 1.052363 5.418243 -2.885643 0.567700 -0.000000 -42.408300 5.552510 2.438922 4.173336 3.975468 4.113286 -87.673899 4.629110 2.534108 -10.536281 -0.023152 -2.032809 14.918511 -1.848500 -0.000000 -77.029100 1.133867 -1.680454 7.070590 -1.645361 -1.721035 -1.735380 -10.582636 -1.869613 -0.841333 13.437903 4.831005 3.799994 -4.809081 -0.403700 2.558878 0.000000 0.000000 0.000000 -5.649931 -13.527121 3.662950 -47.661964 -20.222662 7.953022 -3.643236 -18.722411 -0.001173 3.293635 -3.194351 -0.098072 -0.098041 0.137519 0.000000 0.000000 0.000000 0.000000 0.000000 0.000000 0.000000 23.997060 1.901246 0.796858 70.709670 8.970668 -4.182010 2.221376 17.504925 0.004315 1.734006 10.839201 0.166071 0.003737 -0.103689 0.000000 0.000000 0.000000 0.000000 0.000000 0.000000 0.000000 
-3.059158 17.538738 1.257036 -55.840368 -65.164920 77.694772 -10.849902 -5.837968 -3.790457 10.864960 0.604853 -28.637551 0.291017 -0.028892 12.456413 1.028719 5.242044 -2.923596 0.548200 -0.000000 -42.492899 5.655174 2.208470 4.098445 4.651022 4.813979 -87.759132 4.828626 2.085531 -7.682906 0.032408 -1.773229 15.665524 -1.765000 -0.000000 -76.824600 0.922703 -1.625809 7.112652 -1.703843 -1.663931 -1.723413 -10.590945 -1.810236 -0.810985 13.360693 4.822984 3.797614 -4.812844 -0.403684 2.550746 0.000000 0.000000 0.000000 -5.790629 -13.337906 3.654262 -47.405284 -19.872557 7.643960 -3.667449 -17.999687 -0.001205 3.268512 -3.051784 -0.092991 -0.096964 0.133176 0.000000 0.000000 0.000000 0.000000 0.000000 0.000000 0.000000 23.937854 1.896796 0.749406 70.714784 9.070306 -3.782470 2.184979 17.872342 0.004051 1.669793 10.885047 0.160669 0.002801 -0.104646 0.000000 0.000000 0.000000 0.000000 0.000000 0.000000 0.000000 
